<svg xmlns="http://www.w3.org/2000/svg" viewBox="0 0 1200 630">
  <rect width="1200" height="630" fill="#1e1b4b"/>
  <rect x="50" y="50" width="500" height="530" fill="#8b5cf6" rx="20"/>
  <rect x="70" y="70" width="460" height="490" fill="#1e1b4b" rx="10"/>
  <!-- Word search grid -->
  <g fill="#8b5cf6" opacity="0.3">
    <rect x="90" y="90" width="40" height="40" rx="3"/>
    <rect x="140" y="90" width="40" height="40" rx="3"/>
    <rect x="190" y="90" width="40" height="40" rx="3"/>
    <rect x="240" y="90" width="40" height="40" rx="3"/>
    <rect x="290" y="90" width="40" height="40" rx="3"/>
    <rect x="340" y="90" width="40" height="40" rx="3"/>
    <rect x="390" y="90" width="40" height="40" rx="3"/>
    <rect x="440" y="90" width="40" height="40" rx="3"/>
    <rect x="90" y="140" width="40" height="40" rx="3"/>
    <rect x="140" y="140" width="40" height="40" rx="3"/>
    <rect x="190" y="140" width="40" height="40" rx="3"/>
    <rect x="240" y="140" width="40" height="40" rx="3"/>
    <rect x="290" y="140" width="40" height="40" rx="3"/>
    <rect x="340" y="140" width="40" height="40" rx="3"/>
    <rect x="390" y="140" width="40" height="40" rx="3"/>
    <rect x="440" y="140" width="40" height="40" rx="3"/>
    <rect x="90" y="190" width="40" height="40" rx="3"/>
    <rect x="140" y="190" width="40" height="40" rx="3"/>
    <rect x="190" y="190" width="40" height="40" rx="3"/>
    <rect x="240" y="190" width="40" height="40" rx="3"/>
    <rect x="290" y="190" width="40" height="40" rx="3"/>
    <rect x="340" y="190" width="40" height="40" rx="3"/>
    <rect x="390" y="190" width="40" height="40" rx="3"/>
    <rect x="440" y="190" width="40" height="40" rx="3"/>
    <rect x="90" y="240" width="40" height="40" rx="3"/>
    <rect x="140" y="240" width="40" height="40" rx="3"/>
    <rect x="190" y="240" width="40" height="40" rx="3"/>
    <rect x="240" y="240" width="40" height="40" rx="3"/>
    <rect x="290" y="240" width="40" height="40" rx="3"/>
    <rect x="340" y="240" width="40" height="40" rx="3"/>
    <rect x="390" y="240" width="40" height="40" rx="3"/>
    <rect x="440" y="240" width="40" height="40" rx="3"/>
    <rect x="90" y="290" width="40" height="40" rx="3"/>
    <rect x="140" y="290" width="40" height="40" rx="3"/>
    <rect x="190" y="290" width="40" height="40" rx="3"/>
    <rect x="240" y="290" width="40" height="40" rx="3"/>
    <rect x="290" y="290" width="40" height="40" rx="3"/>
    <rect x="340" y="290" width="40" height="40" rx="3"/>
    <rect x="390" y="290" width="40" height="40" rx="3"/>
    <rect x="440" y="290" width="40" height="40" rx="3"/>
    <rect x="90" y="340" width="40" height="40" rx="3"/>
    <rect x="140" y="340" width="40" height="40" rx="3"/>
    <rect x="190" y="340" width="40" height="40" rx="3"/>
    <rect x="240" y="340" width="40" height="40" rx="3"/>
    <rect x="290" y="340" width="40" height="40" rx="3"/>
    <rect x="340" y="340" width="40" height="40" rx="3"/>
    <rect x="390" y="340" width="40" height="40" rx="3"/>
    <rect x="440" y="340" width="40" height="40" rx="3"/>
    <rect x="90" y="390" width="40" height="40" rx="3"/>
    <rect x="140" y="390" width="40" height="40" rx="3"/>
    <rect x="190" y="390" width="40" height="40" rx="3"/>
    <rect x="240" y="390" width="40" height="40" rx="3"/>
    <rect x="290" y="390" width="40" height="40" rx="3"/>
    <rect x="340" y="390" width="40" height="40" rx="3"/>
    <rect x="390" y="390" width="40" height="40" rx="3"/>
    <rect x="440" y="390" width="40" height="40" rx="3"/>
    <rect x="90" y="440" width="40" height="40" rx="3"/>
    <rect x="140" y="440" width="40" height="40" rx="3"/>
    <rect x="190" y="440" width="40" height="40" rx="3"/>
    <rect x="240" y="440" width="40" height="40" rx="3"/>
    <rect x="290" y="440" width="40" height="40" rx="3"/>
    <rect x="340" y="440" width="40" height="40" rx="3"/>
    <rect x="390" y="440" width="40" height="40" rx="3"/>
    <rect x="440" y="440" width="40" height="40" rx="3"/>
    <rect x="90" y="490" width="40" height="40" rx="3"/>
    <rect x="140" y="490" width="40" height="40" rx="3"/>
    <rect x="190" y="490" width="40" height="40" rx="3"/>
    <rect x="240" y="490" width="40" height="40" rx="3"/>
    <rect x="290" y="490" width="40" height="40" rx="3"/>
    <rect x="340" y="490" width="40" height="40" rx="3"/>
    <rect x="390" y="490" width="40" height="40" rx="3"/>
    <rect x="440" y="490" width="40" height="40" rx="3"/>
  </g>
  <!-- Highlighted word -->
  <rect x="90" y="290" width="400" height="40" fill="#fbbf24" rx="5"/>
  <!-- Title -->
  <text x="600" y="220" font-family="Arial, sans-serif" font-size="80" font-weight="bold" fill="white" text-anchor="middle">LLM-Wordsearch</text>
  <!-- Subtitle -->
  <text x="600" y="300" font-family="Arial, sans-serif" font-size="36" fill="#a78bfa" text-anchor="middle">AI-Powered Word Search Puzzle Generator</text>
  <!-- Features -->
  <text x="600" y="400" font-family="Arial, sans-serif" font-size="28" fill="#c4b5fd" text-anchor="middle">Create Custom Puzzles • Multiple Languages • PDF Export</text>
  <!-- URL -->
  <text x="600" y="550" font-family="Arial, sans-serif" font-size="24" fill="#8b5cf6" text-anchor="middle">github.com/srikanthlogic/llm-wordsearch</text>
</svg>
